<svg width="66" height="36" viewBox="0 0 66 36" fill="none" xmlns="http://www.w3.org/2000/svg">
<rect x="0.5" y="0.5" width="65" height="35" rx="14.5" fill="white"/>
<rect x="0.5" y="0.5" width="65" height="35" rx="14.5" stroke="black"/>
<path d="M32.5747 16.1843L30.001 29H50.5731L53.0851 16.1843H32.5747Z" fill="#EB0000"/>
<path d="M39.0972 19.115H36.3295L34.5359 27.5633H37.3035L39.0972 19.115ZM39.8684 15.4968H37.1008L36.6601 17.621H39.4277L39.8684 15.4968ZM40.6793 19.115L38.9165 27.5633H41.6841L42.6713 22.9139C42.8916 21.8826 43.2574 21.151 44.4958 21.151C45.3772 21.151 45.5359 21.5521 45.3772 22.3762L44.2534 27.5633H47.021L48.2594 21.724C48.6472 19.9038 47.9818 19.0224 46.1132 19.0224C44.7911 19.0224 43.9097 19.3618 43.231 20.6971H43.1208L43.4557 19.1194H40.6793V19.115Z" fill="white"/>
<path d="M18.2474 7H15.4798L12.9149 19.0665H15.6825L18.2474 7ZM30.7105 16.9423C29.5206 16.9423 29.3884 16.5897 29.741 14.849C30.1552 12.901 30.3359 12.6454 31.6272 12.6454C32.7863 12.6454 33.0286 12.9363 32.6232 14.849C32.3147 16.2945 32.0679 16.9423 30.7149 16.9423M26.2506 19.8201C25.779 22.4908 26.5811 22.8125 29.5735 22.8125C32.8215 22.8125 33.8968 21.8474 34.5667 18.6963L36.2722 10.6182H33.5178L33.2975 12.1122H33.1873C33.1256 10.7901 32.3059 10.5212 31.1292 10.5212C28.2161 10.5212 27.5419 12.1122 26.9601 14.849C26.4489 17.2464 26.3211 19.0621 29.3135 19.0621C30.3756 19.0621 31.3319 18.7228 31.9093 17.6783H32.0062L31.6316 19.4411C31.3804 20.6178 31.0851 20.8073 29.8952 20.8073C29.6159 20.8229 29.3367 20.7731 29.0799 20.6619C28.864 20.5341 28.7758 20.274 28.8772 19.8113H26.233L26.2506 19.8201ZM23.3023 14.849C22.9145 16.6823 22.7073 17.0525 21.4205 17.0525C20.1336 17.0525 20.0014 16.6999 20.3892 14.849C20.777 12.998 21.0194 12.6454 22.3548 12.6454C23.6901 12.6454 23.6769 13.0156 23.3023 14.849ZM22.7602 10.5256C19.2346 10.5256 18.3532 11.4071 17.626 14.8534C16.9077 18.2336 17.4674 19.1635 20.9225 19.1635C24.3776 19.1635 25.3295 18.3261 26.0699 14.8534C26.8279 11.2792 26.2991 10.5256 22.7602 10.5256Z" fill="black"/>
</svg>
