<svg width="29" height="46" viewBox="0 0 29 46" fill="none" xmlns="http://www.w3.org/2000/svg">
<path d="M15.5779 0.182255C22.1151 0.182255 27.4005 5.46763 27.4005 12.0048C27.4005 16.3861 25.3837 20.1415 22.1151 22.2278C22.0456 22.2974 21.976 22.3669 21.976 22.4365C21.976 22.506 22.0456 22.5755 22.1151 22.6451C26.3573 24.3141 29 28.6259 29 33.7026C29 40.2398 23.7146 45.5252 17.1775 45.5252H1.66906C0.764988 45.3861 0 44.6211 0 43.717V1.85132C0 0.947243 0.764988 0.182255 1.66906 0.182255H15.5779Z" fill="#38556E"/>
<path d="M9.8753 37.3885C9.66667 37.3885 9.45804 37.1798 9.45804 36.9712V27.5132C9.45804 27.3045 9.66667 27.0959 9.8753 27.0959H10.5012C10.7098 27.0959 10.9185 27.3045 10.9185 27.5132V31.6858H14.6043V27.5132C14.6043 27.3045 14.813 27.0959 15.0216 27.0959H15.6475C15.8561 27.0959 16.0648 27.3045 16.0648 27.5132V36.9712C16.0648 37.1798 15.8561 37.3885 15.6475 37.3885H15.0216C14.813 37.3885 14.6043 37.1798 14.6043 36.9712V32.8681H10.9185V36.9017C10.9185 37.1103 10.7098 37.3189 10.5012 37.3189L9.8753 37.3885Z" fill="#FAC302"/>
<path d="M9.80576 18.4029C9.59712 18.4029 9.38849 18.1942 9.38849 17.9856V8.52758C9.38849 8.31895 9.59712 8.11031 9.80576 8.11031H15.5084C15.717 8.11031 15.9257 8.31895 15.9257 8.52758V8.94485C15.9257 9.15348 15.717 9.36211 15.5084 9.36211H10.7794V12.7002H14.8129C15.0216 12.7002 15.2302 12.9089 15.2302 13.1175V13.3957C15.2302 13.6043 15.0216 13.813 14.8129 13.813H10.7794V17.9856C10.7794 18.1942 10.5707 18.4029 10.3621 18.4029H9.80576Z" fill="#FAC302"/>
</svg>
