<svg width="23" height="18" viewBox="0 0 23 18" fill="none" xmlns="http://www.w3.org/2000/svg">
<path d="M11.792 10.1466L11.792 10.1466L11.7877 10.1496C11.718 10.1985 11.6272 10.2278 11.5338 10.2278H11.5289C11.4056 10.2278 11.3066 10.1858 11.2512 10.1371L11.2505 10.1365L1.07787 1.23875H21.9729L12.2549 9.74902L12.2545 9.74935L11.8363 10.1165L11.8296 10.121L11.8296 10.121L11.8275 10.1225L11.792 10.1466ZM12.9439 11.5186L12.9448 11.5178L14.4234 10.2227L22.092 16.7613H0.903064L8.5848 10.1771L10.1192 11.52L10.1203 11.521C10.5076 11.8576 11.0098 12.0384 11.5321 12.0384C12.0536 12.0384 12.5562 11.8561 12.9439 11.5186ZM7.22663 8.98895L0.4 14.8411V3.01769L7.22663 8.98895ZM22.6 3.06348V14.8476L15.7823 9.03358L22.6 3.06348Z" stroke="black" stroke-width="0.8"/>
</svg>
